<svg height="512" viewBox="0 0 128 128" width="512" xmlns="http://www.w3.org/2000/svg"><g><path d="m14.128 21.65a41.265 41.265 0 0 0 41.265 41.265 41.265 41.265 0 0 0 -41.265-41.265z" fill="#fcc473"/><path d="m25.26 32.783a19 19 0 0 0 19 19 19 19 0 0 0 -19-19z" fill="#fd93ba"/><path d="m72.607 62.915a41.265 41.265 0 0 0 41.265-41.265 41.265 41.265 0 0 0 -41.265 41.265z" fill="#fcc473"/><path d="m83.739 51.783a19 19 0 0 0 19-19 19 19 0 0 0 -19 19z" fill="#fd93ba"/><path d="m72 106.35a31.607 31.607 0 0 0 31.6-31.608v-4.922a39.6 39.6 0 0 0 -39.59-39.59h-.01a39.552 39.552 0 0 0 -39.59 39.59v4.922a31.607 31.607 0 0 0 31.59 31.608z" fill="#fde7c7"/><g fill="#e7a74a"><path d="m86.305 37.111a39.362 39.362 0 0 0 -22.3-6.881h-.005a39.376 39.376 0 0 0 -5.711.409 14.856 14.856 0 0 0 28.021 6.472z"/><path d="m92.324 77.944c.417-.134 10.329-3.219 21.818 5.115a1.75 1.75 0 1 0 2.054-2.833c-13-9.434-24.489-5.766-24.972-5.6a1.75 1.75 0 0 0 1.1 3.322z"/><path d="m110.374 97.43a1.75 1.75 0 0 0 2.766-2.144c-9.841-12.7-21.893-12.393-22.4-12.373a1.75 1.75 0 0 0 .133 3.5c.106-.013 10.749-.275 19.501 11.017z"/><path d="m12.832 83.392a1.742 1.742 0 0 0 1.026-.333c11.47-8.322 21.372-5.259 21.816-5.116a1.75 1.75 0 0 0 1.1-3.321c-.483-.161-11.969-3.83-24.972 5.6a1.749 1.749 0 0 0 1.028 3.166z"/><path d="m16.242 98.108a1.746 1.746 0 0 0 1.384-.678c8.684-11.2 19.065-11.04 19.51-11.02a1.718 1.718 0 0 0 1.81-1.683 1.75 1.75 0 0 0 -1.682-1.814c-.513-.025-12.565-.324-22.4 12.373a1.75 1.75 0 0 0 1.382 2.822z"/></g><ellipse cx="78.62" cy="61.54" fill="#702e11" rx="4.325" ry="5.726"/><ellipse cx="49.38" cy="61.54" fill="#702e11" rx="4.325" ry="5.726"/><path d="m68.191 88.728a7.122 7.122 0 0 1 -2.047-1.428 7.262 7.262 0 0 1 -2.144-5.17 7.287 7.287 0 0 1 -4.191 6.6c.078 3.743 1.93 6.725 4.191 6.725s4.113-2.984 4.191-6.727z" fill="#fd93ba"/><path d="m64 76.842a1.749 1.749 0 0 0 -1.75 1.75v3.537a8.957 8.957 0 0 0 2.657 6.4 9.178 9.178 0 0 0 6.4 2.657 9.071 9.071 0 0 0 9.06-9.061 1.75 1.75 0 0 0 -3.5 0 5.567 5.567 0 0 1 -5.56 5.561 5.676 5.676 0 0 1 -3.933-1.637 5.486 5.486 0 0 1 -1.627-3.924v-3.533a1.749 1.749 0 0 0 -1.747-1.75z" fill="#702e11"/><path d="m63.3 78.38a1.523 1.523 0 0 0 1.408 0 17.231 17.231 0 0 0 3.926-2.766 15.306 15.306 0 0 0 1.307-1.4 1.536 1.536 0 0 0 -1.012-2.506 44.938 44.938 0 0 0 -9.852 0 1.535 1.535 0 0 0 -1.01 2.505 15.438 15.438 0 0 0 1.307 1.4 17.231 17.231 0 0 0 3.926 2.767z" fill="#c76c37"/><path d="m60.551 90.313a9.072 9.072 0 0 0 5.2-8.184 1.75 1.75 0 0 0 -3.5 0 5.566 5.566 0 0 1 -3.2 5.024 5.358 5.358 0 0 1 -2.356.537 5.572 5.572 0 0 1 -5.56-5.561 1.75 1.75 0 0 0 -3.5 0 9.072 9.072 0 0 0 9.06 9.061 8.809 8.809 0 0 0 3.856-.877z" fill="#702e11"/></g></svg>